<?xml version="1.0" standalone="no"?>
<!DOCTYPE svg PUBLIC "-//W3C//DTD SVG 20010904//EN"
 "http://www.w3.org/TR/2001/REC-SVG-20010904/DTD/svg10.dtd">
<svg version="1.0" xmlns="http://www.w3.org/2000/svg"
 width="1300.000000pt" height="1300.000000pt" viewBox="0 0 1300.000000 1300.000000"
 preserveAspectRatio="xMidYMid meet">
<metadata>
Created by potrace 1.14, written by Peter Selinger 2001-2017
</metadata>
<g transform="translate(0.000000,1300.000000) scale(0.100000,-0.100000)"
fill="#000000" stroke="none">
<path d="M8045 11888 c-52 -27 -72 -45 -101 -91 -35 -54 -53 -134 -53 -234 0
-123 -18 -276 -48 -425 l-16 -78 -170 0 c-163 0 -172 -1 -196 -22 l-26 -23 19
23 19 22 -1150 0 -1149 0 -17 73 c-25 104 -45 263 -52 407 -4 69 -14 150 -23
179 -19 66 -74 126 -145 160 -118 57 -278 -15 -328 -149 -19 -51 -21 -69 -16
-230 17 -518 161 -967 453 -1407 127 -192 293 -384 519 -603 139 -135 172
-163 186 -154 8 4 9 3 5 -5 -8 -13 -15 -7 163 -155 72 -60 131 -110 131 -111
0 -1 -48 -42 -107 -91 -272 -224 -448 -390 -620 -582 -400 -449 -631 -929
-709 -1477 -26 -179 -27 -656 -2 -822 49 -322 143 -615 279 -873 53 -100 208
-339 234 -360 8 -7 15 -17 15 -22 0 -5 17 -31 37 -56 198 -247 494 -538 796
-781 75 -61 78 -64 60 -81 -10 -9 -86 -74 -169 -143 -190 -159 -183 -151 -153
-185 l24 -27 -31 27 -30 28 -161 -163 c-275 -276 -413 -450 -572 -722 -162
-274 -282 -630 -326 -960 -9 -66 -18 -196 -22 -290 -5 -158 -4 -174 16 -227
26 -67 101 -142 159 -158 116 -32 225 7 286 103 42 65 43 74 56 282 11 182 29
303 62 428 l20 77 272 0 c149 0 738 1 1309 3 l1038 2 9 -35 c45 -168 66 -312
76 -516 7 -159 23 -213 81 -276 58 -61 111 -82 197 -76 55 3 73 10 119 41 106
73 130 164 115 427 -37 624 -263 1165 -694 1660 -96 110 -224 244 -307 320
l-57 53 -23 -19 -22 -19 19 23 c17 20 18 24 5 36 -39 36 -243 209 -306 260
-40 32 -73 59 -73 61 0 2 33 29 72 61 400 324 678 609 899 919 245 343 404
744 465 1170 27 185 27 644 0 830 -46 320 -151 637 -301 907 -51 92 -173 284
-200 315 -5 7 -26 33 -45 59 -169 226 -462 517 -787 783 -57 46 -103 85 -103
86 0 2 46 40 102 86 740 607 1116 1134 1278 1789 53 215 74 378 74 595 1 170
0 183 -22 225 -32 60 -78 108 -127 131 -56 26 -157 25 -210 -3z m-2475 -863
c13 -14 21 -25 18 -25 -2 0 -15 11 -28 25 -13 14 -21 25 -18 25 2 0 15 -11 28
-25z m1840 -38 c0 -2 -10 -12 -22 -23 l-23 -19 19 23 c18 21 26 27 26 19z
m-1759 -44 c13 -16 12 -17 -3 -4 -10 7 -18 15 -18 17 0 8 8 3 21 -13z m65 -65
l29 -33 -32 29 c-18 17 -33 31 -33 33 0 8 8 1 36 -29z m1614 29 c0 -2 -10 -12
-22 -23 l-23 -19 19 23 c18 21 26 27 26 19z m-1534 -109 l29 -33 -32 29 c-18
17 -33 31 -33 33 0 8 8 1 36 -29z m1454 29 c0 -2 -10 -12 -22 -23 l-23 -19 19
23 c18 21 26 27 26 19z m-80 -80 c0 -2 -10 -12 -22 -23 l-23 -19 19 23 c18 21
26 27 26 19z m500 -82 c0 -41 -229 -383 -330 -492 l-30 -33 -814 0 -815 0 -81
103 c-116 146 -270 384 -270 416 0 8 308 11 1170 11 644 0 1170 -2 1170 -5z
m-1143 -562 c-16 -16 -15 -19 6 -43 l22 -25 -27 24 c-26 23 -27 26 -11 43 9
10 19 18 22 18 3 0 -2 -8 -12 -17z m-77 -76 c0 -2 -10 -12 -22 -23 l-23 -19
19 23 c18 21 26 27 26 19z m161 -44 c13 -16 12 -17 -3 -4 -10 7 -18 15 -18 17
0 8 8 3 21 -13z m-241 -36 c0 -2 -10 -12 -22 -23 l-23 -19 19 23 c18 21 26 27
26 19z m310 -32 c19 -19 32 -35 29 -35 -3 0 -20 16 -39 35 -19 19 -32 35 -29
35 3 0 20 -16 39 -35z m-390 -48 c0 -2 -10 -12 -22 -23 l-23 -19 19 23 c18 21
26 27 26 19z m455 -17 c10 -11 16 -20 13 -20 -3 0 -13 9 -23 20 -10 11 -16 20
-13 20 3 0 13 -9 23 -20z m-550 -80 c-18 -20 -17 -20 343 -20 324 0 399 -5
350 -23 -9 -3 -1 -18 22 -43 l35 -39 -37 34 -37 34 -28 -24 c-129 -106 -336
-269 -342 -269 -10 0 -86 58 -206 157 -55 45 -121 99 -147 120 -26 21 -47 41
-48 46 0 4 15 7 33 7 21 0 41 8 52 20 10 11 20 20 23 20 3 0 -3 -9 -13 -20z
m-75 -74 c0 -2 -8 -10 -17 -17 -16 -13 -17 -12 -4 4 13 16 21 21 21 13z m-70
-69 c0 -2 -10 -12 -22 -23 l-23 -19 19 23 c18 21 26 27 26 19z m946 -29 l29
-33 -32 29 c-31 28 -38 36 -30 36 2 0 16 -15 33 -32z m-1016 -41 c0 -2 -12
-14 -27 -28 l-28 -24 24 28 c23 25 31 32 31 24z m1111 -54 c13 -16 12 -17 -3
-4 -10 7 -18 15 -18 17 0 8 8 3 21 -13z m-1201 -36 c0 -2 -10 -12 -22 -23
l-23 -19 19 23 c18 21 26 27 26 19z m1255 -17 c10 -11 16 -20 13 -20 -3 0 -13
9 -23 20 -10 11 -16 20 -13 20 3 0 13 -9 23 -20z m-1325 -53 c0 -2 -12 -14
-27 -28 l-28 -24 24 28 c23 25 31 32 31 24z m1425 -47 c10 -11 16 -20 13 -20
-3 0 -13 9 -23 20 -10 11 -16 20 -13 20 3 0 13 -9 23 -20z m-636 -719 c56 -44
138 -111 183 -148 44 -37 91 -76 104 -86 13 -10 24 -23 24 -28 0 -5 -172 -9
-420 -9 -231 0 -420 4 -420 8 0 5 21 26 47 48 26 21 63 53 83 70 33 28 188
152 254 202 16 12 32 22 36 22 3 0 52 -36 109 -79z m802 -756 c71 -89 185
-257 218 -322 l21 -43 -1150 0 c-632 0 -1150 2 -1150 5 0 5 46 83 95 160 44
70 184 252 212 277 18 17 76 18 844 20 539 2 828 0 835 -7 6 -5 40 -46 75 -90z
m-1836 -425 c10 -11 16 -20 13 -20 -3 0 -13 9 -23 20 -10 11 -16 20 -13 20 3
0 13 -9 23 -20z m1905 16 c0 -2 -8 -10 -17 -17 -16 -13 -17 -12 -4 4 13 16 21
21 21 13z m-1825 -96 c10 -11 16 -20 13 -20 -3 0 -13 9 -23 20 -10 11 -16 20
-13 20 3 0 13 -9 23 -20z m1745 16 c0 -2 -8 -10 -17 -17 -16 -13 -17 -12 -4 4
13 16 21 21 21 13z m-1670 -91 c13 -14 21 -25 18 -25 -2 0 -15 11 -28 25 -13
14 -21 25 -18 25 2 0 15 -11 28 -25z m1590 11 c0 -2 -8 -10 -17 -17 -16 -13
-17 -12 -4 4 13 16 21 21 21 13z m-70 -69 c0 -2 -10 -12 -22 -23 l-23 -19 19
23 c18 21 26 27 26 19z m-1435 -27 c10 -11 16 -20 13 -20 -3 0 -13 9 -23 20
-10 11 -16 20 -13 20 3 0 13 -9 23 -20z m1340 -70 c-18 -20 -17 -20 318 -20
l336 0 16 -52 c22 -75 52 -248 60 -350 l7 -88 -1392 0 -1393 0 7 83 c9 103 41
285 62 355 l16 52 350 0 c332 0 350 1 337 18 -13 16 -13 16 7 0 19 -17 64 -18
631 -18 597 0 610 0 628 20 10 11 20 20 23 20 3 0 -3 -9 -13 -20z m-700 -570
c10 -11 16 -20 13 -20 -3 0 -13 9 -23 20 -10 11 -16 20 -13 20 3 0 13 -9 23
-20z m145 16 c0 -2 -8 -10 -17 -17 -16 -13 -17 -12 -4 4 13 16 21 21 21 13z
m-40 -39 c0 -2 -19 -21 -42 -42 -24 -22 -35 -31 -26 -20 17 18 17 20 0 39 -17
21 -17 21 4 3 20 -16 22 -16 39 3 17 19 25 24 25 17z m-9 -74 c13 -16 12 -17
-3 -4 -10 7 -18 15 -18 17 0 8 8 3 21 -13z m-111 -47 c0 -2 -8 -10 -17 -17
-16 -13 -17 -12 -4 4 13 16 21 21 21 13z m175 -16 c10 -11 16 -20 13 -20 -3 0
-13 9 -23 20 -10 11 -16 20 -13 20 3 0 13 -9 23 -20z m75 -75 c13 -14 21 -25
18 -25 -2 0 -15 11 -28 25 -13 14 -21 25 -18 25 2 0 15 -11 28 -25z m-330 11
c0 -2 -8 -10 -17 -17 -16 -13 -17 -12 -4 4 13 16 21 21 21 13z m-85 -86 c-18
-20 -17 -20 240 -20 l258 0 -19 23 -19 22 26 -22 25 -23 547 0 c431 0 547 -3
547 -12 0 -64 -66 -358 -99 -440 l-11 -28 -1270 0 -1270 0 -11 27 c-35 92 -99
376 -99 441 0 9 119 12 563 12 551 0 564 0 582 20 10 11 20 20 23 20 3 0 -3
-9 -13 -20z m-555 -554 c0 -2 -8 -10 -17 -17 -16 -13 -17 -12 -4 4 13 16 21
21 21 13z m1615 -16 c10 -11 16 -20 13 -20 -3 0 -13 9 -23 20 -10 11 -16 20
-13 20 3 0 13 -9 23 -20z m-1695 -64 c0 -2 -8 -10 -17 -17 -16 -13 -17 -12 -4
4 13 16 21 21 21 13z m1775 -16 c10 -11 16 -20 13 -20 -3 0 -13 9 -23 20 -10
11 -16 20 -13 20 3 0 13 -9 23 -20z m-1855 -64 c0 -2 -8 -10 -17 -17 -16 -13
-17 -12 -4 4 13 16 21 21 21 13z m1935 -16 c10 -11 16 -20 13 -20 -3 0 -13 9
-23 20 -10 11 -16 20 -13 20 3 0 13 -9 23 -20z m-2015 -64 c0 -2 -8 -10 -17
-17 -16 -13 -17 -12 -4 4 13 16 21 21 21 13z m2085 -126 c-21 -42 -157 -222
-228 -302 l-59 -68 -778 0 -778 0 -63 73 c-70 81 -184 233 -218 290 l-23 37
1081 0 1082 0 -16 -30z m-735 -791 c-87 -76 -320 -259 -329 -259 -10 0 -361
277 -361 286 0 2 163 4 363 4 l362 -1 -35 -30z m-238 -1031 c41 -35 136 -112
209 -173 l133 -110 -429 -5 c-237 -3 -434 -4 -438 -2 -4 2 6 13 22 25 16 12
89 72 162 132 161 133 241 194 254 195 6 0 45 -28 87 -62z m-797 -8 c10 -11
16 -20 13 -20 -3 0 -13 9 -23 20 -10 11 -16 20 -13 20 3 0 13 -9 23 -20z
m1475 6 c0 -2 -8 -10 -17 -17 -16 -13 -17 -12 -4 4 13 16 21 21 21 13z m-1395
-86 c10 -11 16 -20 13 -20 -3 0 -13 9 -23 20 -10 11 -16 20 -13 20 3 0 13 -9
23 -20z m1315 6 c0 -2 -8 -10 -17 -17 -16 -13 -17 -12 -4 4 13 16 21 21 21 13z
m-1230 -91 c13 -14 21 -25 18 -25 -2 0 -15 11 -28 25 -13 14 -21 25 -18 25 2
0 15 -11 28 -25z m1150 11 c0 -2 -8 -10 -17 -17 -16 -13 -17 -12 -4 4 13 16
21 21 21 13z m-1075 -86 c10 -11 16 -20 13 -20 -3 0 -13 9 -23 20 -10 11 -16
20 -13 20 3 0 13 -9 23 -20z m995 6 c0 -2 -8 -10 -17 -17 -16 -13 -17 -12 -4
4 13 16 21 21 21 13z m-915 -86 c10 -11 16 -20 13 -20 -3 0 -13 9 -23 20 -10
11 -16 20 -13 20 3 0 13 -9 23 -20z m80 -80 c10 -11 16 -20 13 -20 -3 0 -13 9
-23 20 -10 11 -16 20 -13 20 3 0 13 -9 23 -20z m675 6 c0 -2 -8 -10 -17 -17
-16 -13 -17 -12 -4 4 13 16 21 21 21 13z m-595 -86 c10 -11 16 -20 13 -20 -3
0 -13 9 -23 20 -10 11 -16 20 -13 20 3 0 13 -9 23 -20z m515 6 c0 -2 -8 -10
-17 -17 -16 -13 -17 -12 -4 4 13 16 21 21 21 13z m-435 -86 c10 -11 16 -20 13
-20 -3 0 -13 9 -23 20 -10 11 -16 20 -13 20 3 0 13 -9 23 -20z m355 6 c0 -2
-8 -10 -17 -17 -16 -13 -17 -12 -4 4 13 16 21 21 21 13z m-275 -86 c10 -11 16
-20 13 -20 -3 0 -13 9 -23 20 -10 11 -16 20 -13 20 3 0 13 -9 23 -20z m195 6
c0 -2 -8 -10 -17 -17 -16 -13 -17 -12 -4 4 13 16 21 21 21 13z m721 -54 c8
-11 56 -74 107 -142 79 -104 185 -269 183 -284 -2 -10 -2281 -15 -2281 -5 0
28 160 269 250 377 l60 72 834 0 c799 0 834 -1 847 -18z m-356 -512 c10 -11
16 -20 13 -20 -3 0 -13 9 -23 20 -10 11 -16 20 -13 20 3 0 13 -9 23 -20z
m-925 6 c0 -2 -8 -10 -17 -17 -16 -13 -17 -12 -4 4 13 16 21 21 21 13z m1005
-86 c10 -11 16 -20 13 -20 -3 0 -13 9 -23 20 -10 11 -16 20 -13 20 3 0 13 -9
23 -20z m-1085 6 c0 -2 -8 -10 -17 -17 -16 -13 -17 -12 -4 4 13 16 21 21 21
13z m1165 -86 c10 -11 16 -20 13 -20 -3 0 -13 9 -23 20 -10 11 -16 20 -13 20
3 0 13 -9 23 -20z m-1245 6 c0 -2 -8 -10 -17 -17 -16 -13 -17 -12 -4 4 13 16
21 21 21 13z m1325 -86 c10 -11 16 -20 13 -20 -3 0 -13 9 -23 20 -10 11 -16
20 -13 20 3 0 13 -9 23 -20z m-1405 6 c0 -2 -8 -10 -17 -17 -16 -13 -17 -12
-4 4 13 16 21 21 21 13z"/>
</g>
</svg>
